<svg width="231" height="53" viewBox="0 0 231 53" fill="none" xmlns="http://www.w3.org/2000/svg">
<rect width="53" height="53" rx="5" fill="#7F91BE"/>
<path d="M19.04 37V15.7H28.13C29.15 15.7 30.08 15.91 30.92 16.33C31.78 16.73 32.52 17.28 33.14 17.98C33.76 18.66 34.24 19.43 34.58 20.29C34.92 21.15 35.09 22.02 35.09 22.9C35.09 24.14 34.8 25.31 34.22 26.41C33.66 27.51 32.87 28.41 31.85 29.11C30.83 29.79 29.64 30.13 28.28 30.13H23.96V37H19.04ZM23.96 25.84H27.98C28.56 25.84 29.06 25.59 29.48 25.09C29.9 24.59 30.11 23.86 30.11 22.9C30.11 21.92 29.86 21.2 29.36 20.74C28.88 20.26 28.36 20.02 27.8 20.02H23.96V25.84Z" fill="white"/>
<path d="M66.53 44V31.22H71.858C72.422 31.22 72.938 31.34 73.406 31.58C73.874 31.808 74.282 32.12 74.63 32.516C74.978 32.9 75.248 33.338 75.44 33.83C75.632 34.31 75.728 34.802 75.728 35.306C75.728 36.002 75.572 36.668 75.26 37.304C74.948 37.928 74.51 38.438 73.946 38.834C73.382 39.218 72.722 39.41 71.966 39.41H68.15V44H66.53ZM68.15 37.97H71.876C72.32 37.97 72.704 37.85 73.028 37.61C73.364 37.37 73.622 37.046 73.802 36.638C73.994 36.23 74.09 35.786 74.09 35.306C74.09 34.802 73.982 34.352 73.766 33.956C73.55 33.548 73.268 33.23 72.92 33.002C72.572 32.774 72.188 32.66 71.768 32.66H68.15V37.97ZM76.6494 41.282C76.6494 40.682 76.8174 40.166 77.1534 39.734C77.5014 39.29 77.9754 38.948 78.5754 38.708C79.1754 38.468 79.8714 38.348 80.6634 38.348C81.0834 38.348 81.5274 38.384 81.9954 38.456C82.4634 38.516 82.8774 38.612 83.2374 38.744V38.06C83.2374 37.34 83.0214 36.776 82.5894 36.368C82.1574 35.948 81.5454 35.738 80.7534 35.738C80.2374 35.738 79.7394 35.834 79.2594 36.026C78.7914 36.206 78.2934 36.47 77.7654 36.818L77.1894 35.702C77.8014 35.282 78.4134 34.97 79.0254 34.766C79.6374 34.55 80.2734 34.442 80.9334 34.442C82.1334 34.442 83.0814 34.778 83.7774 35.45C84.4734 36.11 84.8214 37.034 84.8214 38.222V42.2C84.8214 42.572 84.9894 42.764 85.3254 42.776V44C85.1694 44.024 85.0314 44.042 84.9114 44.054C84.8034 44.066 84.7134 44.072 84.6414 44.072C84.2694 44.072 83.9874 43.97 83.7954 43.766C83.6154 43.562 83.5134 43.346 83.4894 43.118L83.4534 42.524C83.0454 43.052 82.5114 43.46 81.8514 43.748C81.1914 44.036 80.5374 44.18 79.8894 44.18C79.2654 44.18 78.7074 44.054 78.2154 43.802C77.7234 43.538 77.3394 43.19 77.0634 42.758C76.7874 42.314 76.6494 41.822 76.6494 41.282ZM82.7694 41.948C82.9134 41.78 83.0274 41.612 83.1114 41.444C83.1954 41.264 83.2374 41.114 83.2374 40.994V39.824C82.4694 39.524 81.6774 39.374 80.8614 39.374C80.0574 39.374 79.4034 39.536 78.8994 39.86C78.4074 40.172 78.1614 40.604 78.1614 41.156C78.1614 41.456 78.2394 41.75 78.3954 42.038C78.5634 42.314 78.8034 42.542 79.1154 42.722C79.4394 42.902 79.8354 42.992 80.3034 42.992C80.7954 42.992 81.2634 42.896 81.7074 42.704C82.1514 42.5 82.5054 42.248 82.7694 41.948ZM90.2882 44.126C89.3762 44.126 88.6022 43.958 87.9662 43.622C87.3422 43.274 86.8622 42.794 86.5262 42.182L87.8222 41.606C88.0382 41.99 88.3442 42.29 88.7402 42.506C89.1482 42.722 89.6402 42.83 90.2162 42.83C90.9002 42.83 91.4402 42.68 91.8362 42.38C92.2322 42.08 92.4302 41.678 92.4302 41.174C92.4302 40.718 92.2682 40.352 91.9442 40.076C91.6322 39.788 91.1882 39.638 90.6122 39.626H89.6582V38.582H90.6662C91.0502 38.582 91.3622 38.45 91.6022 38.186C91.8542 37.91 91.9802 37.568 91.9802 37.16C91.9802 36.74 91.8302 36.404 91.5302 36.152C91.2302 35.888 90.7802 35.756 90.1802 35.756C89.2322 35.756 88.5542 36.14 88.1462 36.908L86.9402 36.26C87.2402 35.696 87.6722 35.258 88.2362 34.946C88.8122 34.622 89.4842 34.46 90.2522 34.46C91.1762 34.46 91.9322 34.682 92.5202 35.126C93.1082 35.558 93.4022 36.17 93.4022 36.962C93.4022 37.406 93.2942 37.82 93.0782 38.204C92.8742 38.576 92.5682 38.858 92.1602 39.05C92.7242 39.218 93.1562 39.512 93.4562 39.932C93.7562 40.34 93.9062 40.826 93.9062 41.39C93.9062 42.254 93.5642 42.926 92.8802 43.406C92.2082 43.886 91.3442 44.126 90.2882 44.126ZM100.867 44.18C100.099 44.18 99.4153 43.988 98.8153 43.604C98.2153 43.22 97.7413 42.734 97.3933 42.146V47.834H95.8093V34.604H97.2133V36.368C97.5853 35.792 98.0713 35.33 98.6713 34.982C99.2713 34.622 99.9253 34.442 100.633 34.442C101.281 34.442 101.875 34.574 102.415 34.838C102.955 35.102 103.423 35.462 103.819 35.918C104.215 36.374 104.521 36.896 104.737 37.484C104.965 38.06 105.079 38.666 105.079 39.302C105.079 40.19 104.899 41.006 104.539 41.75C104.191 42.494 103.699 43.088 103.063 43.532C102.427 43.964 101.695 44.18 100.867 44.18ZM100.381 42.812C101.005 42.812 101.545 42.644 102.001 42.308C102.457 41.972 102.811 41.534 103.063 40.994C103.327 40.454 103.459 39.89 103.459 39.302C103.459 38.666 103.315 38.084 103.027 37.556C102.751 37.028 102.367 36.608 101.875 36.296C101.395 35.972 100.849 35.81 100.237 35.81C99.8653 35.81 99.4693 35.906 99.0493 36.098C98.6413 36.29 98.2813 36.548 97.9693 36.872C97.6693 37.184 97.4773 37.532 97.3933 37.916V40.598C97.6573 41.222 98.0593 41.75 98.5993 42.182C99.1513 42.602 99.7453 42.812 100.381 42.812ZM106.286 41.282C106.286 40.682 106.454 40.166 106.79 39.734C107.138 39.29 107.612 38.948 108.212 38.708C108.812 38.468 109.508 38.348 110.3 38.348C110.72 38.348 111.164 38.384 111.632 38.456C112.1 38.516 112.514 38.612 112.874 38.744V38.06C112.874 37.34 112.658 36.776 112.226 36.368C111.794 35.948 111.182 35.738 110.39 35.738C109.874 35.738 109.376 35.834 108.896 36.026C108.428 36.206 107.93 36.47 107.402 36.818L106.826 35.702C107.438 35.282 108.05 34.97 108.662 34.766C109.274 34.55 109.91 34.442 110.57 34.442C111.77 34.442 112.718 34.778 113.414 35.45C114.11 36.11 114.458 37.034 114.458 38.222V42.2C114.458 42.572 114.626 42.764 114.962 42.776V44C114.806 44.024 114.668 44.042 114.548 44.054C114.44 44.066 114.35 44.072 114.278 44.072C113.906 44.072 113.624 43.97 113.432 43.766C113.252 43.562 113.15 43.346 113.126 43.118L113.09 42.524C112.682 43.052 112.148 43.46 111.488 43.748C110.828 44.036 110.174 44.18 109.526 44.18C108.902 44.18 108.344 44.054 107.852 43.802C107.36 43.538 106.976 43.19 106.7 42.758C106.424 42.314 106.286 41.822 106.286 41.282ZM112.406 41.948C112.55 41.78 112.664 41.612 112.748 41.444C112.832 41.264 112.874 41.114 112.874 40.994V39.824C112.106 39.524 111.314 39.374 110.498 39.374C109.694 39.374 109.04 39.536 108.536 39.86C108.044 40.172 107.798 40.604 107.798 41.156C107.798 41.456 107.876 41.75 108.032 42.038C108.2 42.314 108.44 42.542 108.752 42.722C109.076 42.902 109.472 42.992 109.94 42.992C110.432 42.992 110.9 42.896 111.344 42.704C111.788 42.5 112.142 42.248 112.406 41.948ZM121.419 44.18C119.871 44.18 118.701 43.712 117.909 42.776C117.117 41.84 116.721 40.52 116.721 38.816C116.721 37.652 116.817 36.674 117.009 35.882C117.201 35.078 117.489 34.418 117.873 33.902C118.257 33.374 118.731 32.948 119.295 32.624C119.859 32.288 120.507 32.012 121.239 31.796L125.217 30.59L125.307 31.958L121.437 33.128C120.777 33.344 120.225 33.62 119.781 33.956C119.337 34.292 118.989 34.724 118.737 35.252C118.485 35.78 118.317 36.458 118.233 37.286C118.545 36.65 119.013 36.158 119.637 35.81C120.261 35.45 120.987 35.27 121.815 35.27C122.703 35.27 123.465 35.456 124.101 35.828C124.749 36.188 125.241 36.698 125.577 37.358C125.925 38.006 126.099 38.756 126.099 39.608C126.099 40.52 125.919 41.318 125.559 42.002C125.199 42.686 124.671 43.22 123.975 43.604C123.279 43.988 122.427 44.18 121.419 44.18ZM121.419 42.812C122.391 42.812 123.141 42.53 123.669 41.966C124.209 41.39 124.479 40.628 124.479 39.68C124.479 38.756 124.215 38.006 123.687 37.43C123.159 36.854 122.403 36.566 121.419 36.566C120.543 36.566 119.811 36.836 119.223 37.376C118.647 37.916 118.359 38.684 118.359 39.68C118.359 40.592 118.623 41.342 119.151 41.93C119.679 42.518 120.435 42.812 121.419 42.812ZM132.134 44.18C131.198 44.18 130.37 43.958 129.65 43.514C128.942 43.058 128.39 42.464 127.994 41.732C127.598 40.988 127.4 40.184 127.4 39.32C127.4 38.444 127.598 37.64 127.994 36.908C128.402 36.164 128.96 35.57 129.668 35.126C130.388 34.67 131.21 34.442 132.134 34.442C133.07 34.442 133.892 34.67 134.6 35.126C135.32 35.57 135.878 36.164 136.274 36.908C136.682 37.64 136.886 38.444 136.886 39.32C136.886 40.184 136.682 40.988 136.274 41.732C135.878 42.464 135.326 43.058 134.618 43.514C133.91 43.958 133.082 44.18 132.134 44.18ZM129.02 39.338C129.02 39.986 129.158 40.574 129.434 41.102C129.722 41.63 130.1 42.05 130.568 42.362C131.036 42.662 131.558 42.812 132.134 42.812C132.71 42.812 133.232 42.656 133.7 42.344C134.18 42.032 134.558 41.612 134.834 41.084C135.122 40.544 135.266 39.95 135.266 39.302C135.266 38.654 135.122 38.066 134.834 37.538C134.558 37.01 134.18 36.59 133.7 36.278C133.232 35.966 132.71 35.81 132.134 35.81C131.558 35.81 131.036 35.972 130.568 36.296C130.1 36.608 129.722 37.028 129.434 37.556C129.158 38.084 129.02 38.678 129.02 39.338ZM141.091 44V36.008H137.851V34.604H145.915V36.008H142.675V44H141.091ZM147.489 44V34.604H149.073V38.474H150.117L153.069 34.604H154.869L151.359 39.158L155.283 44H153.447L150.117 39.932H149.073V44H147.489ZM156.103 41.282C156.103 40.682 156.271 40.166 156.607 39.734C156.955 39.29 157.429 38.948 158.029 38.708C158.629 38.468 159.325 38.348 160.117 38.348C160.537 38.348 160.981 38.384 161.449 38.456C161.917 38.516 162.331 38.612 162.691 38.744V38.06C162.691 37.34 162.475 36.776 162.043 36.368C161.611 35.948 160.999 35.738 160.207 35.738C159.691 35.738 159.193 35.834 158.713 36.026C158.245 36.206 157.747 36.47 157.219 36.818L156.643 35.702C157.255 35.282 157.867 34.97 158.479 34.766C159.091 34.55 159.727 34.442 160.387 34.442C161.587 34.442 162.535 34.778 163.231 35.45C163.927 36.11 164.275 37.034 164.275 38.222V42.2C164.275 42.572 164.443 42.764 164.779 42.776V44C164.623 44.024 164.485 44.042 164.365 44.054C164.257 44.066 164.167 44.072 164.095 44.072C163.723 44.072 163.441 43.97 163.249 43.766C163.069 43.562 162.967 43.346 162.943 43.118L162.907 42.524C162.499 43.052 161.965 43.46 161.305 43.748C160.645 44.036 159.991 44.18 159.343 44.18C158.719 44.18 158.161 44.054 157.669 43.802C157.177 43.538 156.793 43.19 156.517 42.758C156.241 42.314 156.103 41.822 156.103 41.282ZM162.223 41.948C162.367 41.78 162.481 41.612 162.565 41.444C162.649 41.264 162.691 41.114 162.691 40.994V39.824C161.923 39.524 161.131 39.374 160.314 39.374C159.511 39.374 158.857 39.536 158.353 39.86C157.861 40.172 157.615 40.604 157.615 41.156C157.615 41.456 157.693 41.75 157.849 42.038C158.017 42.314 158.257 42.542 158.569 42.722C158.893 42.902 159.289 42.992 159.757 42.992C160.249 42.992 160.717 42.896 161.161 42.704C161.605 42.5 161.959 42.248 162.223 41.948ZM175.518 44.18C174.582 44.18 173.754 43.958 173.034 43.514C172.314 43.058 171.75 42.458 171.342 41.714C170.934 40.97 170.73 40.16 170.73 39.284C170.73 38.396 170.928 37.586 171.324 36.854C171.72 36.122 172.278 35.54 172.998 35.108C173.718 34.664 174.552 34.442 175.5 34.442C176.424 34.442 177.228 34.652 177.912 35.072C178.608 35.48 179.124 36.032 179.46 36.728L177.912 37.214C177.672 36.77 177.336 36.428 176.904 36.188C176.472 35.936 175.992 35.81 175.464 35.81C174.888 35.81 174.36 35.96 173.88 36.26C173.412 36.56 173.04 36.974 172.764 37.502C172.488 38.018 172.35 38.612 172.35 39.284C172.35 39.944 172.488 40.544 172.764 41.084C173.052 41.612 173.43 42.032 173.898 42.344C174.378 42.656 174.906 42.812 175.482 42.812C175.854 42.812 176.208 42.746 176.544 42.614C176.892 42.482 177.192 42.308 177.444 42.092C177.708 41.864 177.888 41.618 177.984 41.354L179.532 41.822C179.256 42.506 178.752 43.07 178.02 43.514C177.3 43.958 176.466 44.18 175.518 44.18ZM180.589 41.282C180.589 40.682 180.757 40.166 181.093 39.734C181.441 39.29 181.915 38.948 182.515 38.708C183.115 38.468 183.811 38.348 184.603 38.348C185.023 38.348 185.467 38.384 185.935 38.456C186.403 38.516 186.817 38.612 187.177 38.744V38.06C187.177 37.34 186.961 36.776 186.529 36.368C186.097 35.948 185.485 35.738 184.693 35.738C184.177 35.738 183.679 35.834 183.199 36.026C182.731 36.206 182.233 36.47 181.705 36.818L181.129 35.702C181.741 35.282 182.353 34.97 182.965 34.766C183.577 34.55 184.213 34.442 184.873 34.442C186.073 34.442 187.021 34.778 187.717 35.45C188.413 36.11 188.761 37.034 188.761 38.222V42.2C188.761 42.572 188.929 42.764 189.265 42.776V44C189.109 44.024 188.971 44.042 188.851 44.054C188.743 44.066 188.653 44.072 188.581 44.072C188.209 44.072 187.927 43.97 187.735 43.766C187.555 43.562 187.453 43.346 187.429 43.118L187.393 42.524C186.985 43.052 186.451 43.46 185.791 43.748C185.131 44.036 184.477 44.18 183.829 44.18C183.205 44.18 182.647 44.054 182.155 43.802C181.663 43.538 181.279 43.19 181.003 42.758C180.727 42.314 180.589 41.822 180.589 41.282ZM186.709 41.948C186.853 41.78 186.967 41.612 187.051 41.444C187.135 41.264 187.177 41.114 187.177 40.994V39.824C186.409 39.524 185.617 39.374 184.801 39.374C183.997 39.374 183.343 39.536 182.839 39.86C182.347 40.172 182.101 40.604 182.101 41.156C182.101 41.456 182.179 41.75 182.335 42.038C182.503 42.314 182.743 42.542 183.055 42.722C183.379 42.902 183.775 42.992 184.243 42.992C184.735 42.992 185.203 42.896 185.647 42.704C186.091 42.5 186.445 42.248 186.709 41.948ZM191.276 44V34.622H192.86V41.876L198.116 34.604H199.556V44H197.972V36.89L192.788 44H191.276ZM195.434 33.542C194.57 33.542 193.916 33.338 193.472 32.93C193.028 32.51 192.806 31.994 192.806 31.382H193.922C193.922 31.718 194.036 32 194.264 32.228C194.504 32.444 194.894 32.552 195.434 32.552C195.962 32.552 196.334 32.45 196.55 32.246C196.766 32.03 196.898 31.742 196.946 31.382H198.062C198.062 31.994 197.84 32.51 197.396 32.93C196.952 33.338 196.298 33.542 195.434 33.542ZM204.373 44V36.008H201.133V34.604H209.197V36.008H205.957V44H204.373ZM214.892 44.18C213.956 44.18 213.128 43.958 212.408 43.514C211.7 43.058 211.148 42.464 210.752 41.732C210.356 40.988 210.158 40.184 210.158 39.32C210.158 38.444 210.356 37.64 210.752 36.908C211.16 36.164 211.718 35.57 212.426 35.126C213.146 34.67 213.968 34.442 214.892 34.442C215.828 34.442 216.65 34.67 217.358 35.126C218.078 35.57 218.636 36.164 219.032 36.908C219.44 37.64 219.644 38.444 219.644 39.32C219.644 40.184 219.44 40.988 219.032 41.732C218.636 42.464 218.084 43.058 217.376 43.514C216.668 43.958 215.84 44.18 214.892 44.18ZM211.778 39.338C211.778 39.986 211.916 40.574 212.192 41.102C212.48 41.63 212.858 42.05 213.326 42.362C213.794 42.662 214.316 42.812 214.892 42.812C215.468 42.812 215.99 42.656 216.458 42.344C216.938 42.032 217.316 41.612 217.592 41.084C217.88 40.544 218.024 39.95 218.024 39.302C218.024 38.654 217.88 38.066 217.592 37.538C217.316 37.01 216.938 36.59 216.458 36.278C215.99 35.966 215.468 35.81 214.892 35.81C214.316 35.81 213.794 35.972 213.326 36.296C212.858 36.608 212.48 37.028 212.192 37.556C211.916 38.084 211.778 38.678 211.778 39.338ZM221.545 44V34.604H226.405C226.969 34.604 227.437 34.718 227.809 34.946C228.181 35.162 228.457 35.444 228.637 35.792C228.829 36.14 228.925 36.512 228.925 36.908C228.925 37.412 228.805 37.868 228.565 38.276C228.325 38.672 227.977 38.972 227.521 39.176C228.061 39.332 228.499 39.614 228.835 40.022C229.171 40.418 229.339 40.91 229.339 41.498C229.339 42.29 229.057 42.908 228.493 43.352C227.941 43.784 227.215 44 226.315 44H221.545ZM223.057 38.744H225.991C226.411 38.744 226.753 38.588 227.017 38.276C227.293 37.952 227.431 37.586 227.431 37.178C227.431 36.782 227.299 36.44 227.035 36.152C226.783 35.864 226.453 35.72 226.045 35.72H223.057V38.744ZM223.057 42.884H226.279C226.711 42.884 227.071 42.728 227.359 42.416C227.659 42.104 227.809 41.744 227.809 41.336C227.809 40.916 227.665 40.556 227.377 40.256C227.101 39.944 226.753 39.788 226.333 39.788H223.057V42.884Z" fill="white"/>
<path d="M66.224 20V7.22H71.678C72.29 7.22 72.848 7.346 73.352 7.598C73.868 7.838 74.312 8.168 74.684 8.588C75.056 8.996 75.344 9.458 75.548 9.974C75.752 10.49 75.854 11.012 75.854 11.54C75.854 12.284 75.68 12.986 75.332 13.646C74.996 14.306 74.522 14.846 73.91 15.266C73.298 15.674 72.584 15.878 71.768 15.878H69.176V20H66.224ZM69.176 13.304H71.588C71.936 13.304 72.236 13.154 72.488 12.854C72.74 12.554 72.866 12.116 72.866 11.54C72.866 10.952 72.716 10.52 72.416 10.244C72.128 9.956 71.816 9.812 71.48 9.812H69.176V13.304ZM84.3688 13.016C83.6728 13.028 83.0428 13.142 82.4788 13.358C81.9148 13.574 81.5068 13.898 81.2548 14.33V20H78.3748V10.55H81.0208V12.458C81.3448 11.822 81.7648 11.324 82.2808 10.964C82.7968 10.604 83.3368 10.418 83.9008 10.406C84.1408 10.406 84.2968 10.412 84.3688 10.424V13.016ZM91.1816 20.18C90.1016 20.18 89.1836 19.952 88.4276 19.496C87.6836 19.04 87.1136 18.44 86.7176 17.696C86.3216 16.952 86.1236 16.148 86.1236 15.284C86.1236 14.408 86.3216 13.598 86.7176 12.854C87.1136 12.11 87.6896 11.51 88.4456 11.054C89.2016 10.598 90.1136 10.37 91.1816 10.37C92.2496 10.37 93.1616 10.598 93.9176 11.054C94.6736 11.51 95.2496 12.11 95.6456 12.854C96.0416 13.598 96.2396 14.408 96.2396 15.284C96.2396 16.148 96.0416 16.952 95.6456 17.696C95.2496 18.44 94.6736 19.04 93.9176 19.496C93.1616 19.952 92.2496 20.18 91.1816 20.18ZM89.0756 15.284C89.0756 16.016 89.2736 16.61 89.6696 17.066C90.0776 17.522 90.5816 17.75 91.1816 17.75C91.7696 17.75 92.2616 17.522 92.6576 17.066C93.0656 16.61 93.2696 16.016 93.2696 15.284C93.2696 14.552 93.0656 13.958 92.6576 13.502C92.2616 13.046 91.7696 12.818 91.1816 12.818C90.5816 12.818 90.0776 13.046 89.6696 13.502C89.2736 13.958 89.0756 14.552 89.0756 15.284ZM99.3972 20V13.502H98.1912V11.324H99.3972V10.55C99.3972 9.374 99.6972 8.438 100.297 7.742C100.897 7.034 101.695 6.68 102.691 6.68C103.483 6.68 104.305 6.866 105.157 7.238L104.635 9.398C104.443 9.314 104.227 9.248 103.987 9.2C103.747 9.14 103.531 9.11 103.339 9.11C102.631 9.11 102.277 9.554 102.277 10.442V11.324H104.473V13.502H102.277V20H99.3972ZM111.327 7.238H114.045L115.377 11.324L116.709 7.238H119.445L117.267 13.178L118.563 16.58L121.767 7.22H124.989L120.003 20H117.447L115.377 14.996L113.325 20H110.751L105.783 7.22H108.987L112.209 16.58L113.469 13.178L111.327 7.238ZM130.27 20.18C129.202 20.18 128.29 19.958 127.534 19.514C126.778 19.07 126.196 18.482 125.788 17.75C125.392 17.018 125.194 16.226 125.194 15.374C125.194 14.462 125.392 13.628 125.788 12.872C126.184 12.116 126.76 11.51 127.516 11.054C128.272 10.598 129.19 10.37 130.27 10.37C131.338 10.37 132.25 10.598 133.006 11.054C133.762 11.51 134.332 12.11 134.716 12.854C135.112 13.598 135.31 14.396 135.31 15.248C135.31 15.596 135.286 15.902 135.238 16.166H128.254C128.302 16.802 128.53 17.288 128.938 17.624C129.358 17.948 129.832 18.11 130.36 18.11C130.78 18.11 131.182 18.008 131.566 17.804C131.95 17.6 132.214 17.324 132.358 16.976L134.806 17.66C134.434 18.404 133.852 19.01 133.06 19.478C132.28 19.946 131.35 20.18 130.27 20.18ZM128.182 14.402H132.286C132.226 13.802 132.004 13.328 131.62 12.98C131.248 12.62 130.786 12.44 130.234 12.44C129.682 12.44 129.214 12.62 128.83 12.98C128.458 13.34 128.242 13.814 128.182 14.402ZM143.455 20.18C142.735 20.18 142.105 20.03 141.565 19.73C141.025 19.418 140.599 18.986 140.287 18.434V20H137.785V6.86H140.665V12.098C140.965 11.558 141.379 11.138 141.907 10.838C142.435 10.526 143.053 10.37 143.761 10.37C144.565 10.37 145.273 10.592 145.885 11.036C146.509 11.48 146.995 12.074 147.343 12.818C147.691 13.562 147.865 14.396 147.865 15.32C147.865 16.232 147.673 17.06 147.289 17.804C146.905 18.536 146.377 19.118 145.705 19.55C145.045 19.97 144.295 20.18 143.455 20.18ZM142.645 17.75C143.317 17.75 143.863 17.516 144.283 17.048C144.703 16.58 144.913 16.004 144.913 15.32C144.913 14.876 144.817 14.462 144.625 14.078C144.445 13.694 144.193 13.388 143.869 13.16C143.557 12.932 143.197 12.818 142.789 12.818C142.333 12.818 141.913 12.974 141.529 13.286C141.145 13.598 140.857 13.988 140.665 14.456V16.436C140.857 16.844 141.133 17.168 141.493 17.408C141.865 17.636 142.249 17.75 142.645 17.75ZM158.371 10.964C158.335 10.916 158.209 10.826 157.993 10.694C157.777 10.562 157.507 10.424 157.183 10.28C156.859 10.124 156.505 9.998 156.121 9.902C155.737 9.794 155.353 9.74 154.969 9.74C153.913 9.74 153.385 10.094 153.385 10.802C153.385 11.234 153.613 11.54 154.069 11.72C154.537 11.9 155.203 12.116 156.067 12.368C156.883 12.596 157.585 12.86 158.173 13.16C158.773 13.448 159.235 13.838 159.559 14.33C159.883 14.81 160.045 15.446 160.045 16.238C160.045 16.958 159.913 17.57 159.649 18.074C159.385 18.566 159.025 18.968 158.569 19.28C158.113 19.58 157.597 19.802 157.021 19.946C156.457 20.078 155.869 20.144 155.257 20.144C154.309 20.144 153.349 20.006 152.377 19.73C151.405 19.442 150.547 19.052 149.803 18.56L151.099 15.986C151.147 16.046 151.303 16.16 151.567 16.328C151.831 16.484 152.161 16.652 152.557 16.832C152.953 17.012 153.385 17.168 153.853 17.3C154.333 17.42 154.819 17.48 155.311 17.48C156.355 17.48 156.877 17.162 156.877 16.526C156.877 16.202 156.739 15.95 156.463 15.77C156.199 15.578 155.833 15.416 155.365 15.284C154.897 15.14 154.369 14.978 153.781 14.798C152.605 14.438 151.735 14 151.171 13.484C150.619 12.968 150.343 12.23 150.343 11.27C150.343 10.37 150.553 9.614 150.973 9.002C151.405 8.378 151.981 7.91 152.701 7.598C153.421 7.274 154.207 7.112 155.059 7.112C155.959 7.112 156.811 7.268 157.615 7.58C158.419 7.88 159.103 8.192 159.667 8.516L158.371 10.964ZM168.587 19.496C168.191 19.664 167.735 19.82 167.219 19.964C166.715 20.108 166.205 20.18 165.689 20.18C165.209 20.18 164.771 20.102 164.375 19.946C163.979 19.778 163.661 19.508 163.421 19.136C163.181 18.764 163.061 18.272 163.061 17.66V12.728H161.855V10.55H163.061V7.544H165.941V10.55H167.867V12.728H165.941V16.67C165.941 16.982 166.019 17.21 166.175 17.354C166.331 17.486 166.529 17.552 166.769 17.552C166.985 17.552 167.207 17.516 167.435 17.444C167.663 17.372 167.861 17.294 168.029 17.21L168.587 19.496ZM170.789 16.598V10.55H173.669V15.968C173.669 17.156 174.107 17.75 174.983 17.75C175.367 17.75 175.739 17.648 176.099 17.444C176.459 17.228 176.777 16.874 177.053 16.382V10.55H179.933V16.796C179.933 17.084 179.975 17.288 180.059 17.408C180.155 17.528 180.317 17.594 180.545 17.606V20C180.269 20.048 180.035 20.084 179.843 20.108C179.651 20.132 179.477 20.144 179.321 20.144C178.289 20.144 177.701 19.742 177.557 18.938L177.503 18.362C177.071 18.986 176.531 19.448 175.883 19.748C175.247 20.036 174.533 20.18 173.741 20.18C172.781 20.18 172.049 19.874 171.545 19.262C171.041 18.65 170.789 17.762 170.789 16.598ZM182.795 15.266C182.795 14.354 182.969 13.532 183.317 12.8C183.677 12.056 184.169 11.468 184.793 11.036C185.429 10.592 186.155 10.37 186.971 10.37C187.631 10.37 188.225 10.532 188.753 10.856C189.293 11.168 189.707 11.582 189.995 12.098V6.86H192.875V16.796C192.875 17.084 192.917 17.288 193.001 17.408C193.097 17.528 193.259 17.594 193.487 17.606V20C192.983 20.096 192.575 20.144 192.263 20.144C191.771 20.144 191.369 20.036 191.057 19.82C190.745 19.604 190.559 19.304 190.499 18.92L190.445 18.434C190.109 19.022 189.653 19.46 189.077 19.748C188.501 20.036 187.895 20.18 187.259 20.18C186.395 20.18 185.627 19.97 184.955 19.55C184.283 19.118 183.755 18.53 183.371 17.786C182.987 17.042 182.795 16.202 182.795 15.266ZM190.013 16.436V14.456C189.833 13.976 189.539 13.586 189.131 13.286C188.735 12.974 188.321 12.818 187.889 12.818C187.481 12.818 187.115 12.932 186.791 13.16C186.467 13.388 186.215 13.694 186.035 14.078C185.855 14.462 185.765 14.876 185.765 15.32C185.765 16.016 185.975 16.598 186.395 17.066C186.827 17.522 187.373 17.75 188.033 17.75C188.429 17.75 188.807 17.636 189.167 17.408C189.539 17.168 189.821 16.844 190.013 16.436ZM196.282 9.47V6.86H199.162V9.47H196.282ZM196.282 20V10.55H199.162V20H196.282ZM206.803 20.18C205.723 20.18 204.805 19.952 204.049 19.496C203.305 19.04 202.735 18.44 202.339 17.696C201.943 16.952 201.745 16.148 201.745 15.284C201.745 14.408 201.943 13.598 202.339 12.854C202.735 12.11 203.311 11.51 204.067 11.054C204.823 10.598 205.735 10.37 206.803 10.37C207.871 10.37 208.783 10.598 209.539 11.054C210.295 11.51 210.871 12.11 211.267 12.854C211.663 13.598 211.861 14.408 211.861 15.284C211.861 16.148 211.663 16.952 211.267 17.696C210.871 18.44 210.295 19.04 209.539 19.496C208.783 19.952 207.871 20.18 206.803 20.18ZM204.697 15.284C204.697 16.016 204.895 16.61 205.291 17.066C205.699 17.522 206.203 17.75 206.803 17.75C207.391 17.75 207.883 17.522 208.279 17.066C208.687 16.61 208.891 16.016 208.891 15.284C208.891 14.552 208.687 13.958 208.279 13.502C207.883 13.046 207.391 12.818 206.803 12.818C206.203 12.818 205.699 13.046 205.291 13.502C204.895 13.958 204.697 14.552 204.697 15.284Z" fill="white"/>
</svg>
