<svg width="230" height="53" fill="none" xmlns="http://www.w3.org/2000/svg"><path d="M0 5a5 5 0 015-5h43a5 5 0 015 5v43a5 5 0 01-5 5H5a5 5 0 01-5-5V5z" fill="#054373"/><path d="M19.04 37V15.7h9.09c1.02 0 1.95.21 2.79.63.86.4 1.6.95 2.22 1.65.62.68 1.1 1.45 1.44 2.31.34.86.51 1.73.51 2.61 0 1.24-.29 2.41-.87 3.51-.56 1.1-1.35 2-2.37 2.7-1.02.68-2.21 1.02-3.57 1.02h-4.32V37h-4.92zm4.92-11.16h4.02c.58 0 1.08-.25 1.5-.75.42-.5.63-1.23.63-2.19 0-.98-.25-1.7-.75-2.16-.48-.48-1-.72-1.56-.72h-3.84v5.82z" fill="#fff"/><path d="M66.53 44V31.22h5.328c.564 0 1.08.12 1.548.36.468.228.876.54 1.224.936.348.384.618.822.81 1.314.192.48.288.972.288 1.476 0 .696-.156 1.362-.468 1.998a4.055 4.055 0 01-1.314 1.53c-.564.384-1.224.576-1.98.576H68.15V44h-1.62zm1.62-6.03h3.726c.444 0 .828-.12 1.152-.36.336-.24.594-.564.774-.972.192-.408.288-.852.288-1.332 0-.504-.108-.954-.324-1.35a2.523 2.523 0 00-.846-.954 2.058 2.058 0 00-1.152-.342H68.15v5.31zm8.5 3.312c0-.6.167-1.116.503-1.548.348-.444.822-.786 1.422-1.026s1.296-.36 2.088-.36c.42 0 .864.036 1.332.108.468.06.882.156 1.242.288v-.684c0-.72-.216-1.284-.648-1.692-.432-.42-1.044-.63-1.836-.63-.516 0-1.014.096-1.494.288-.468.18-.966.444-1.494.792l-.576-1.116a7.383 7.383 0 011.836-.936 5.69 5.69 0 011.908-.324c1.2 0 2.148.336 2.844 1.008.696.66 1.044 1.584 1.044 2.772V42.2c0 .372.168.564.504.576V44a7.988 7.988 0 01-.414.054 2.524 2.524 0 01-.27.018c-.372 0-.654-.102-.846-.306a1.157 1.157 0 01-.306-.648l-.036-.594a4.005 4.005 0 01-1.602 1.224 4.876 4.876 0 01-1.962.432c-.624 0-1.182-.126-1.674-.378a3.038 3.038 0 01-1.152-1.044 2.74 2.74 0 01-.414-1.476zm6.12.666a2.53 2.53 0 00.341-.504c.084-.18.126-.33.126-.45v-1.17c-.768-.3-1.56-.45-2.376-.45-.804 0-1.458.162-1.962.486-.492.312-.738.744-.738 1.296 0 .3.078.594.234.882.168.276.408.504.72.684.324.18.72.27 1.188.27a3.5 3.5 0 001.404-.288c.444-.204.798-.456 1.062-.756zm7.518 2.178c-.912 0-1.686-.168-2.322-.504a3.615 3.615 0 01-1.44-1.44l1.296-.576c.216.384.522.684.918.9.408.216.9.324 1.476.324.684 0 1.224-.15 1.62-.45.396-.3.594-.702.594-1.206 0-.456-.162-.822-.486-1.098-.312-.288-.756-.438-1.332-.45h-.954v-1.044h1.008c.384 0 .696-.132.936-.396.252-.276.378-.618.378-1.026 0-.42-.15-.756-.45-1.008-.3-.264-.75-.396-1.35-.396-.948 0-1.626.384-2.034 1.152l-1.206-.648a3.18 3.18 0 011.296-1.314c.576-.324 1.248-.486 2.016-.486.924 0 1.68.222 2.268.666.588.432.882 1.044.882 1.836 0 .444-.108.858-.324 1.242a1.97 1.97 0 01-.918.846c.564.168.996.462 1.296.882.3.408.45.894.45 1.458 0 .864-.342 1.536-1.026 2.016-.672.48-1.536.72-2.592.72zm10.579.054c-.768 0-1.452-.192-2.052-.576a4.343 4.343 0 01-1.422-1.458v5.688H95.81v-13.23h1.404v1.764a4.245 4.245 0 011.458-1.386c.6-.36 1.254-.54 1.962-.54.648 0 1.242.132 1.782.396s1.008.624 1.404 1.08c.396.456.702.978.918 1.566.228.576.342 1.182.342 1.818 0 .888-.18 1.704-.54 2.448a4.396 4.396 0 01-1.476 1.782c-.636.432-1.368.648-2.196.648zm-.486-1.368c.624 0 1.164-.168 1.62-.504a3.37 3.37 0 001.062-1.314c.264-.54.396-1.104.396-1.692 0-.636-.144-1.218-.432-1.746a3.24 3.24 0 00-1.152-1.26 2.86 2.86 0 00-1.638-.486c-.372 0-.768.096-1.188.288-.408.192-.768.45-1.08.774-.3.312-.492.66-.576 1.044v2.682a3.996 3.996 0 001.206 1.584c.552.42 1.146.63 1.782.63zm5.905-1.53c0-.6.168-1.116.504-1.548.348-.444.822-.786 1.422-1.026s1.296-.36 2.088-.36c.42 0 .864.036 1.332.108.468.06.882.156 1.242.288v-.684c0-.72-.216-1.284-.648-1.692-.432-.42-1.044-.63-1.836-.63-.516 0-1.014.096-1.494.288-.468.18-.966.444-1.494.792l-.576-1.116a7.383 7.383 0 011.836-.936 5.69 5.69 0 011.908-.324c1.2 0 2.148.336 2.844 1.008.696.66 1.044 1.584 1.044 2.772V42.2c0 .372.168.564.504.576V44a7.988 7.988 0 01-.414.054 2.524 2.524 0 01-.27.018c-.372 0-.654-.102-.846-.306a1.157 1.157 0 01-.306-.648l-.036-.594a4.005 4.005 0 01-1.602 1.224 4.876 4.876 0 01-1.962.432c-.624 0-1.182-.126-1.674-.378a3.038 3.038 0 01-1.152-1.044 2.74 2.74 0 01-.414-1.476zm6.12.666c.144-.168.258-.336.342-.504.084-.18.126-.33.126-.45v-1.17c-.768-.3-1.56-.45-2.376-.45-.804 0-1.458.162-1.962.486-.492.312-.738.744-.738 1.296 0 .3.078.594.234.882.168.276.408.504.72.684.324.18.72.27 1.188.27a3.5 3.5 0 001.404-.288c.444-.204.798-.456 1.062-.756zm9.013 2.232c-1.548 0-2.718-.468-3.51-1.404-.792-.936-1.188-2.256-1.188-3.96 0-1.164.096-2.142.288-2.934.192-.804.48-1.464.864-1.98a4.53 4.53 0 011.422-1.278 8.465 8.465 0 011.944-.828l3.978-1.206.09 1.368-3.87 1.17c-.66.216-1.212.492-1.656.828a3.47 3.47 0 00-1.044 1.296c-.252.528-.42 1.206-.504 2.034a3.338 3.338 0 011.404-1.476c.624-.36 1.35-.54 2.178-.54.888 0 1.65.186 2.286.558.648.36 1.14.87 1.476 1.53.348.648.522 1.398.522 2.25 0 .912-.18 1.71-.54 2.394a3.845 3.845 0 01-1.584 1.602c-.696.384-1.548.576-2.556.576zm0-1.368c.972 0 1.722-.282 2.25-.846.54-.576.81-1.338.81-2.286 0-.924-.264-1.674-.792-2.25-.528-.576-1.284-.864-2.268-.864-.876 0-1.608.27-2.196.81-.576.54-.864 1.308-.864 2.304 0 .912.264 1.662.792 2.25.528.588 1.284.882 2.268.882zm10.715 1.368c-.936 0-1.764-.222-2.484-.666a4.815 4.815 0 01-1.656-1.782 5.055 5.055 0 01-.594-2.412c0-.876.198-1.68.594-2.412a4.778 4.778 0 011.674-1.782c.72-.456 1.542-.684 2.466-.684.936 0 1.758.228 2.466.684a4.596 4.596 0 011.674 1.782 4.87 4.87 0 01.612 2.412c0 .864-.204 1.668-.612 2.412a4.815 4.815 0 01-1.656 1.782c-.708.444-1.536.666-2.484.666zm-3.114-4.842c0 .648.138 1.236.414 1.764.288.528.666.948 1.134 1.26.468.3.99.45 1.566.45.576 0 1.098-.156 1.566-.468a3.29 3.29 0 001.134-1.26c.288-.54.432-1.134.432-1.782 0-.648-.144-1.236-.432-1.764a3.29 3.29 0 00-1.134-1.26 2.761 2.761 0 00-1.566-.468c-.576 0-1.098.162-1.566.486a3.493 3.493 0 00-1.134 1.26c-.276.528-.414 1.122-.414 1.782zM141.091 44v-7.992h-3.24v-1.404h8.064v1.404h-3.24V44h-1.584zm6.398 0v-9.396h1.584v3.87h1.044l2.952-3.87h1.8l-3.51 4.554L155.283 44h-1.836l-3.33-4.068h-1.044V44h-1.584zm8.614-2.718c0-.6.167-1.116.503-1.548.348-.444.823-.786 1.423-1.026.6-.24 1.296-.36 2.088-.36.42 0 .864.036 1.332.108.468.06.881.156 1.241.288v-.684c0-.72-.215-1.284-.647-1.692-.432-.42-1.045-.63-1.837-.63-.516 0-1.013.096-1.493.288-.468.18-.967.444-1.495.792l-.575-1.116a7.383 7.383 0 011.836-.936 5.685 5.685 0 011.907-.324c1.2 0 2.148.336 2.844 1.008.696.66 1.044 1.584 1.044 2.772V42.2c0 .372.169.564.505.576V44a7.988 7.988 0 01-.414.054 2.54 2.54 0 01-.271.018c-.372 0-.654-.102-.846-.306a1.157 1.157 0 01-.306-.648l-.035-.594a4.008 4.008 0 01-1.603 1.224 4.876 4.876 0 01-1.962.432c-.624 0-1.181-.126-1.673-.378a3.038 3.038 0 01-1.152-1.044 2.74 2.74 0 01-.414-1.476zm6.12.666c.144-.168.257-.336.341-.504.084-.18.126-.33.126-.45v-1.17c-.768-.3-1.56-.45-2.376-.45-.804 0-1.457.162-1.961.486-.492.312-.738.744-.738 1.296 0 .3.078.594.234.882.168.276.407.504.719.684.324.18.721.27 1.189.27.492 0 .959-.096 1.403-.288.444-.204.799-.456 1.063-.756zm13.295 2.232c-.936 0-1.764-.222-2.484-.666a4.87 4.87 0 01-1.692-1.8 4.972 4.972 0 01-.612-2.43c0-.888.198-1.698.594-2.43a4.5 4.5 0 011.674-1.746c.72-.444 1.554-.666 2.502-.666.924 0 1.728.21 2.412.63.696.408 1.212.96 1.548 1.656l-1.548.486a2.516 2.516 0 00-1.008-1.026 2.805 2.805 0 00-1.44-.378 2.93 2.93 0 00-1.584.45c-.468.3-.84.714-1.116 1.242-.276.516-.414 1.11-.414 1.782 0 .66.138 1.26.414 1.8.288.528.666.948 1.134 1.26.48.312 1.008.468 1.584.468.372 0 .726-.066 1.062-.198.348-.132.648-.306.9-.522.264-.228.444-.474.54-.738l1.548.468c-.276.684-.78 1.248-1.512 1.692-.72.444-1.554.666-2.502.666zm5.071-2.898c0-.6.168-1.116.504-1.548.348-.444.822-.786 1.422-1.026s1.296-.36 2.088-.36c.42 0 .864.036 1.332.108.468.06.882.156 1.242.288v-.684c0-.72-.216-1.284-.648-1.692-.432-.42-1.044-.63-1.836-.63-.516 0-1.014.096-1.494.288-.468.18-.966.444-1.494.792l-.576-1.116a7.383 7.383 0 011.836-.936 5.69 5.69 0 011.908-.324c1.2 0 2.148.336 2.844 1.008.696.66 1.044 1.584 1.044 2.772V42.2c0 .372.168.564.504.576V44a7.988 7.988 0 01-.414.054 2.524 2.524 0 01-.27.018c-.372 0-.654-.102-.846-.306a1.157 1.157 0 01-.306-.648l-.036-.594a4.005 4.005 0 01-1.602 1.224 4.876 4.876 0 01-1.962.432c-.624 0-1.182-.126-1.674-.378a3.038 3.038 0 01-1.152-1.044 2.74 2.74 0 01-.414-1.476zm6.12.666c.144-.168.258-.336.342-.504.084-.18.126-.33.126-.45v-1.17c-.768-.3-1.56-.45-2.376-.45-.804 0-1.458.162-1.962.486-.492.312-.738.744-.738 1.296 0 .3.078.594.234.882.168.276.408.504.72.684.324.18.72.27 1.188.27a3.5 3.5 0 001.404-.288c.444-.204.798-.456 1.062-.756zM191.276 44v-9.378h1.584v7.254l5.256-7.272h1.44V44h-1.584v-7.11L192.788 44h-1.512zm4.158-10.458c-.864 0-1.518-.204-1.962-.612a2.048 2.048 0 01-.666-1.548h1.116c0 .336.114.618.342.846.24.216.63.324 1.17.324.528 0 .9-.102 1.116-.306.216-.216.348-.504.396-.864h1.116c0 .612-.222 1.128-.666 1.548-.444.408-1.098.612-1.962.612zM204.373 44v-7.992h-3.24v-1.404h8.064v1.404h-3.24V44h-1.584zm10.519.18c-.936 0-1.764-.222-2.484-.666a4.815 4.815 0 01-1.656-1.782 5.055 5.055 0 01-.594-2.412c0-.876.198-1.68.594-2.412a4.778 4.778 0 011.674-1.782c.72-.456 1.542-.684 2.466-.684.936 0 1.758.228 2.466.684a4.596 4.596 0 011.674 1.782 4.87 4.87 0 01.612 2.412c0 .864-.204 1.668-.612 2.412a4.815 4.815 0 01-1.656 1.782c-.708.444-1.536.666-2.484.666zm-3.114-4.842c0 .648.138 1.236.414 1.764.288.528.666.948 1.134 1.26.468.3.99.45 1.566.45.576 0 1.098-.156 1.566-.468a3.29 3.29 0 001.134-1.26c.288-.54.432-1.134.432-1.782 0-.648-.144-1.236-.432-1.764a3.29 3.29 0 00-1.134-1.26 2.761 2.761 0 00-1.566-.468c-.576 0-1.098.162-1.566.486a3.493 3.493 0 00-1.134 1.26c-.276.528-.414 1.122-.414 1.782zM221.545 44v-9.396h4.86c.564 0 1.032.114 1.404.342.372.216.648.498.828.846.192.348.288.72.288 1.116 0 .504-.12.96-.36 1.368-.24.396-.588.696-1.044.9.54.156.978.438 1.314.846.336.396.504.888.504 1.476 0 .792-.282 1.41-.846 1.854-.552.432-1.278.648-2.178.648h-4.77zm1.512-5.256h2.934c.42 0 .762-.156 1.026-.468.276-.324.414-.69.414-1.098 0-.396-.132-.738-.396-1.026-.252-.288-.582-.432-.99-.432h-2.988v3.024zm0 4.14h3.222c.432 0 .792-.156 1.08-.468.3-.312.45-.672.45-1.08 0-.42-.144-.78-.432-1.08a1.334 1.334 0 00-1.044-.468h-3.276v3.096z" fill="#054373"/><path d="M66.224 20V7.22h5.454c.612 0 1.17.126 1.674.378.516.24.96.57 1.332.99.372.408.66.87.864 1.386.204.516.306 1.038.306 1.566a4.45 4.45 0 01-.522 2.106c-.336.66-.81 1.2-1.422 1.62-.612.408-1.326.612-2.142.612h-2.592V20h-2.952zm2.952-6.696h2.412c.348 0 .648-.15.9-.45.252-.3.378-.738.378-1.314 0-.588-.15-1.02-.45-1.296-.288-.288-.6-.432-.936-.432h-2.304v3.492zm15.193-.288a5.519 5.519 0 00-1.89.342c-.564.216-.972.54-1.224.972V20h-2.88v-9.45h2.646v1.908c.324-.636.744-1.134 1.26-1.494.516-.36 1.056-.546 1.62-.558.24 0 .396.006.468.018v2.592zm6.813 7.164c-1.08 0-1.998-.228-2.754-.684a4.643 4.643 0 01-1.71-1.8 5.055 5.055 0 01-.594-2.412c0-.876.198-1.686.594-2.43a4.605 4.605 0 011.728-1.8c.756-.456 1.668-.684 2.736-.684 1.068 0 1.98.228 2.736.684a4.605 4.605 0 011.728 1.8c.396.744.594 1.554.594 2.43 0 .864-.198 1.668-.594 2.412a4.605 4.605 0 01-1.728 1.8c-.756.456-1.668.684-2.736.684zm-2.106-4.896c0 .732.198 1.326.594 1.782.408.456.912.684 1.512.684.588 0 1.08-.228 1.476-.684.408-.456.612-1.05.612-1.782s-.204-1.326-.612-1.782c-.396-.456-.888-.684-1.476-.684-.6 0-1.104.228-1.512.684-.396.456-.594 1.05-.594 1.782zM99.397 20v-6.498h-1.206v-2.178h1.206v-.774c0-1.176.3-2.112.9-2.808.6-.708 1.398-1.062 2.394-1.062.792 0 1.614.186 2.466.558l-.522 2.16a3.163 3.163 0 00-.648-.198 2.7 2.7 0 00-.648-.09c-.708 0-1.062.444-1.062 1.332v.882h2.196v2.178h-2.196V20h-2.88zm11.93-12.762h2.718l1.332 4.086 1.332-4.086h2.736l-2.178 5.94 1.296 3.402 3.204-9.36h3.222L120.003 20h-2.556l-2.07-5.004L113.325 20h-2.574l-4.968-12.78h3.204l3.222 9.36 1.26-3.402-2.142-5.94zM130.27 20.18c-1.068 0-1.98-.222-2.736-.666a4.648 4.648 0 01-1.746-1.764 4.915 4.915 0 01-.594-2.376c0-.912.198-1.746.594-2.502a4.572 4.572 0 011.728-1.818c.756-.456 1.674-.684 2.754-.684 1.068 0 1.98.228 2.736.684.756.456 1.326 1.056 1.71 1.8.396.744.594 1.542.594 2.394 0 .348-.024.654-.072.918h-6.984c.048.636.276 1.122.684 1.458.42.324.894.486 1.422.486.42 0 .822-.102 1.206-.306.384-.204.648-.48.792-.828l2.448.684c-.372.744-.954 1.35-1.746 1.818-.78.468-1.71.702-2.79.702zm-2.088-5.778h4.104c-.06-.6-.282-1.074-.666-1.422-.372-.36-.834-.54-1.386-.54-.552 0-1.02.18-1.404.54-.372.36-.588.834-.648 1.422zm15.273 5.778c-.72 0-1.35-.15-1.89-.45a3.4 3.4 0 01-1.278-1.296V20h-2.502V6.86h2.88v5.238c.3-.54.714-.96 1.242-1.26.528-.312 1.146-.468 1.854-.468.804 0 1.512.222 2.124.666.624.444 1.11 1.038 1.458 1.782.348.744.522 1.578.522 2.502 0 .912-.192 1.74-.576 2.484a4.543 4.543 0 01-1.584 1.746c-.66.42-1.41.63-2.25.63zm-.81-2.43c.672 0 1.218-.234 1.638-.702.42-.468.63-1.044.63-1.728 0-.444-.096-.858-.288-1.242a2.28 2.28 0 00-.756-.918 1.782 1.782 0 00-1.08-.342c-.456 0-.876.156-1.26.468a2.9 2.9 0 00-.864 1.17v1.98c.192.408.468.732.828.972.372.228.756.342 1.152.342zm15.726-6.786c-.036-.048-.162-.138-.378-.27a7.128 7.128 0 00-.81-.414 5.538 5.538 0 00-1.062-.378 4.238 4.238 0 00-1.152-.162c-1.056 0-1.584.354-1.584 1.062 0 .432.228.738.684.918.468.18 1.134.396 1.998.648.816.228 1.518.492 2.106.792.6.288 1.062.678 1.386 1.17.324.48.486 1.116.486 1.908 0 .72-.132 1.332-.396 1.836a3.37 3.37 0 01-1.08 1.206c-.456.3-.972.522-1.548.666a7.717 7.717 0 01-1.764.198c-.948 0-1.908-.138-2.88-.414-.972-.288-1.83-.678-2.574-1.17l1.296-2.574c.048.06.204.174.468.342.264.156.594.324.99.504s.828.336 1.296.468c.48.12.966.18 1.458.18 1.044 0 1.566-.318 1.566-.954a.854.854 0 00-.414-.756c-.264-.192-.63-.354-1.098-.486l-1.584-.486c-1.176-.36-2.046-.798-2.61-1.314-.552-.516-.828-1.254-.828-2.214 0-.9.21-1.656.63-2.268a3.979 3.979 0 011.728-1.404 5.68 5.68 0 012.358-.486c.9 0 1.752.156 2.556.468.804.3 1.488.612 2.052.936l-1.296 2.448zm10.216 8.532c-.396.168-.852.324-1.368.468a5.544 5.544 0 01-1.53.216c-.48 0-.918-.078-1.314-.234a2.084 2.084 0 01-.954-.81c-.24-.372-.36-.864-.36-1.476v-4.932h-1.206V10.55h1.206V7.544h2.88v3.006h1.926v2.178h-1.926v3.942c0 .312.078.54.234.684a.888.888 0 00.594.198c.216 0 .438-.036.666-.108.228-.072.426-.15.594-.234l.558 2.286zm2.202-2.898V10.55h2.88v5.418c0 1.188.438 1.782 1.314 1.782.384 0 .756-.102 1.116-.306.36-.216.678-.57.954-1.062V10.55h2.88v6.246c0 .288.042.492.126.612.096.12.258.186.486.198V20c-.276.048-.51.084-.702.108a4.243 4.243 0 01-.522.036c-1.032 0-1.62-.402-1.764-1.206l-.054-.576a3.99 3.99 0 01-1.62 1.386c-.636.288-1.35.432-2.142.432-.96 0-1.692-.306-2.196-.918-.504-.612-.756-1.5-.756-2.664zm12.006-1.332c0-.912.174-1.734.522-2.466.36-.744.852-1.332 1.476-1.764.636-.444 1.362-.666 2.178-.666.66 0 1.254.162 1.782.486.54.312.954.726 1.242 1.242V6.86h2.88v9.936c0 .288.042.492.126.612.096.12.258.186.486.198V20c-.504.096-.912.144-1.224.144-.492 0-.894-.108-1.206-.324a1.292 1.292 0 01-.558-.9l-.054-.486a3.206 3.206 0 01-1.368 1.314 4.013 4.013 0 01-1.818.432c-.864 0-1.632-.21-2.304-.63a4.51 4.51 0 01-1.584-1.764c-.384-.744-.576-1.584-.576-2.52zm7.218 1.17v-1.98c-.18-.48-.474-.87-.882-1.17-.396-.312-.81-.468-1.242-.468-.408 0-.774.114-1.098.342a2.28 2.28 0 00-.756.918 2.89 2.89 0 00-.27 1.242c0 .696.21 1.278.63 1.746.432.456.978.684 1.638.684.396 0 .774-.114 1.134-.342.372-.24.654-.564.846-.972zm6.269-6.966V6.86h2.88v2.61h-2.88zm0 10.53v-9.45h2.88V20h-2.88zm10.521.18c-1.08 0-1.998-.228-2.754-.684a4.643 4.643 0 01-1.71-1.8 5.055 5.055 0 01-.594-2.412c0-.876.198-1.686.594-2.43a4.605 4.605 0 011.728-1.8c.756-.456 1.668-.684 2.736-.684 1.068 0 1.98.228 2.736.684a4.605 4.605 0 011.728 1.8c.396.744.594 1.554.594 2.43 0 .864-.198 1.668-.594 2.412a4.605 4.605 0 01-1.728 1.8c-.756.456-1.668.684-2.736.684zm-2.106-4.896c0 .732.198 1.326.594 1.782.408.456.912.684 1.512.684.588 0 1.08-.228 1.476-.684.408-.456.612-1.05.612-1.782s-.204-1.326-.612-1.782c-.396-.456-.888-.684-1.476-.684-.6 0-1.104.228-1.512.684-.396.456-.594 1.05-.594 1.782z" fill="#000"/></svg>