<svg width="231" height="53" viewBox="0 0 231 53" fill="none" xmlns="http://www.w3.org/2000/svg">
<rect width="53" height="53" rx="5" fill="#054373"/>
<path d="M43.04 16L36.23 37H29.87L25.85 24.22L21.65 37H15.29L8.48 16H14.6L18.83 29.41L23.27 16H28.73L32.96 29.53L37.37 16H43.04Z" fill="white"/>
<path d="M66.53 44V31.22H71.858C72.422 31.22 72.938 31.34 73.406 31.58C73.874 31.808 74.282 32.12 74.63 32.516C74.978 32.9 75.248 33.338 75.44 33.83C75.632 34.31 75.728 34.802 75.728 35.306C75.728 36.002 75.572 36.668 75.26 37.304C74.948 37.928 74.51 38.438 73.946 38.834C73.382 39.218 72.722 39.41 71.966 39.41H68.15V44H66.53ZM68.15 37.97H71.876C72.32 37.97 72.704 37.85 73.028 37.61C73.364 37.37 73.622 37.046 73.802 36.638C73.994 36.23 74.09 35.786 74.09 35.306C74.09 34.802 73.982 34.352 73.766 33.956C73.55 33.548 73.268 33.23 72.92 33.002C72.572 32.774 72.188 32.66 71.768 32.66H68.15V37.97ZM76.6494 41.282C76.6494 40.682 76.8174 40.166 77.1534 39.734C77.5014 39.29 77.9754 38.948 78.5754 38.708C79.1754 38.468 79.8714 38.348 80.6634 38.348C81.0834 38.348 81.5274 38.384 81.9954 38.456C82.4634 38.516 82.8774 38.612 83.2374 38.744V38.06C83.2374 37.34 83.0214 36.776 82.5894 36.368C82.1574 35.948 81.5454 35.738 80.7534 35.738C80.2374 35.738 79.7394 35.834 79.2594 36.026C78.7914 36.206 78.2934 36.47 77.7654 36.818L77.1894 35.702C77.8014 35.282 78.4134 34.97 79.0254 34.766C79.6374 34.55 80.2734 34.442 80.9334 34.442C82.1334 34.442 83.0814 34.778 83.7774 35.45C84.4734 36.11 84.8214 37.034 84.8214 38.222V42.2C84.8214 42.572 84.9894 42.764 85.3254 42.776V44C85.1694 44.024 85.0314 44.042 84.9114 44.054C84.8034 44.066 84.7134 44.072 84.6414 44.072C84.2694 44.072 83.9874 43.97 83.7954 43.766C83.6154 43.562 83.5134 43.346 83.4894 43.118L83.4534 42.524C83.0454 43.052 82.5114 43.46 81.8514 43.748C81.1914 44.036 80.5374 44.18 79.8894 44.18C79.2654 44.18 78.7074 44.054 78.2154 43.802C77.7234 43.538 77.3394 43.19 77.0634 42.758C76.7874 42.314 76.6494 41.822 76.6494 41.282ZM82.7694 41.948C82.9134 41.78 83.0274 41.612 83.1114 41.444C83.1954 41.264 83.2374 41.114 83.2374 40.994V39.824C82.4694 39.524 81.6774 39.374 80.8614 39.374C80.0574 39.374 79.4034 39.536 78.8994 39.86C78.4074 40.172 78.1614 40.604 78.1614 41.156C78.1614 41.456 78.2394 41.75 78.3954 42.038C78.5634 42.314 78.8034 42.542 79.1154 42.722C79.4394 42.902 79.8354 42.992 80.3034 42.992C80.7954 42.992 81.2634 42.896 81.7074 42.704C82.1514 42.5 82.5054 42.248 82.7694 41.948ZM90.2882 44.126C89.3762 44.126 88.6022 43.958 87.9662 43.622C87.3422 43.274 86.8622 42.794 86.5262 42.182L87.8222 41.606C88.0382 41.99 88.3442 42.29 88.7402 42.506C89.1482 42.722 89.6402 42.83 90.2162 42.83C90.9002 42.83 91.4402 42.68 91.8362 42.38C92.2322 42.08 92.4302 41.678 92.4302 41.174C92.4302 40.718 92.2682 40.352 91.9442 40.076C91.6322 39.788 91.1882 39.638 90.6122 39.626H89.6582V38.582H90.6662C91.0502 38.582 91.3622 38.45 91.6022 38.186C91.8542 37.91 91.9802 37.568 91.9802 37.16C91.9802 36.74 91.8302 36.404 91.5302 36.152C91.2302 35.888 90.7802 35.756 90.1802 35.756C89.2322 35.756 88.5542 36.14 88.1462 36.908L86.9402 36.26C87.2402 35.696 87.6722 35.258 88.2362 34.946C88.8122 34.622 89.4842 34.46 90.2522 34.46C91.1762 34.46 91.9322 34.682 92.5202 35.126C93.1082 35.558 93.4022 36.17 93.4022 36.962C93.4022 37.406 93.2942 37.82 93.0782 38.204C92.8742 38.576 92.5682 38.858 92.1602 39.05C92.7242 39.218 93.1562 39.512 93.4562 39.932C93.7562 40.34 93.9062 40.826 93.9062 41.39C93.9062 42.254 93.5642 42.926 92.8802 43.406C92.2082 43.886 91.3442 44.126 90.2882 44.126ZM100.867 44.18C100.099 44.18 99.4153 43.988 98.8153 43.604C98.2153 43.22 97.7413 42.734 97.3933 42.146V47.834H95.8093V34.604H97.2133V36.368C97.5853 35.792 98.0713 35.33 98.6713 34.982C99.2713 34.622 99.9253 34.442 100.633 34.442C101.281 34.442 101.875 34.574 102.415 34.838C102.955 35.102 103.423 35.462 103.819 35.918C104.215 36.374 104.521 36.896 104.737 37.484C104.965 38.06 105.079 38.666 105.079 39.302C105.079 40.19 104.899 41.006 104.539 41.75C104.191 42.494 103.699 43.088 103.063 43.532C102.427 43.964 101.695 44.18 100.867 44.18ZM100.381 42.812C101.005 42.812 101.545 42.644 102.001 42.308C102.457 41.972 102.811 41.534 103.063 40.994C103.327 40.454 103.459 39.89 103.459 39.302C103.459 38.666 103.315 38.084 103.027 37.556C102.751 37.028 102.367 36.608 101.875 36.296C101.395 35.972 100.849 35.81 100.237 35.81C99.8653 35.81 99.4693 35.906 99.0493 36.098C98.6413 36.29 98.2813 36.548 97.9693 36.872C97.6693 37.184 97.4773 37.532 97.3933 37.916V40.598C97.6573 41.222 98.0593 41.75 98.5993 42.182C99.1513 42.602 99.7453 42.812 100.381 42.812ZM106.286 41.282C106.286 40.682 106.454 40.166 106.79 39.734C107.138 39.29 107.612 38.948 108.212 38.708C108.812 38.468 109.508 38.348 110.3 38.348C110.72 38.348 111.164 38.384 111.632 38.456C112.1 38.516 112.514 38.612 112.874 38.744V38.06C112.874 37.34 112.658 36.776 112.226 36.368C111.794 35.948 111.182 35.738 110.39 35.738C109.874 35.738 109.376 35.834 108.896 36.026C108.428 36.206 107.93 36.47 107.402 36.818L106.826 35.702C107.438 35.282 108.05 34.97 108.662 34.766C109.274 34.55 109.91 34.442 110.57 34.442C111.77 34.442 112.718 34.778 113.414 35.45C114.11 36.11 114.458 37.034 114.458 38.222V42.2C114.458 42.572 114.626 42.764 114.962 42.776V44C114.806 44.024 114.668 44.042 114.548 44.054C114.44 44.066 114.35 44.072 114.278 44.072C113.906 44.072 113.624 43.97 113.432 43.766C113.252 43.562 113.15 43.346 113.126 43.118L113.09 42.524C112.682 43.052 112.148 43.46 111.488 43.748C110.828 44.036 110.174 44.18 109.526 44.18C108.902 44.18 108.344 44.054 107.852 43.802C107.36 43.538 106.976 43.19 106.7 42.758C106.424 42.314 106.286 41.822 106.286 41.282ZM112.406 41.948C112.55 41.78 112.664 41.612 112.748 41.444C112.832 41.264 112.874 41.114 112.874 40.994V39.824C112.106 39.524 111.314 39.374 110.498 39.374C109.694 39.374 109.04 39.536 108.536 39.86C108.044 40.172 107.798 40.604 107.798 41.156C107.798 41.456 107.876 41.75 108.032 42.038C108.2 42.314 108.44 42.542 108.752 42.722C109.076 42.902 109.472 42.992 109.94 42.992C110.432 42.992 110.9 42.896 111.344 42.704C111.788 42.5 112.142 42.248 112.406 41.948ZM121.419 44.18C119.871 44.18 118.701 43.712 117.909 42.776C117.117 41.84 116.721 40.52 116.721 38.816C116.721 37.652 116.817 36.674 117.009 35.882C117.201 35.078 117.489 34.418 117.873 33.902C118.257 33.374 118.731 32.948 119.295 32.624C119.859 32.288 120.507 32.012 121.239 31.796L125.217 30.59L125.307 31.958L121.437 33.128C120.777 33.344 120.225 33.62 119.781 33.956C119.337 34.292 118.989 34.724 118.737 35.252C118.485 35.78 118.317 36.458 118.233 37.286C118.545 36.65 119.013 36.158 119.637 35.81C120.261 35.45 120.987 35.27 121.815 35.27C122.703 35.27 123.465 35.456 124.101 35.828C124.749 36.188 125.241 36.698 125.577 37.358C125.925 38.006 126.099 38.756 126.099 39.608C126.099 40.52 125.919 41.318 125.559 42.002C125.199 42.686 124.671 43.22 123.975 43.604C123.279 43.988 122.427 44.18 121.419 44.18ZM121.419 42.812C122.391 42.812 123.141 42.53 123.669 41.966C124.209 41.39 124.479 40.628 124.479 39.68C124.479 38.756 124.215 38.006 123.687 37.43C123.159 36.854 122.403 36.566 121.419 36.566C120.543 36.566 119.811 36.836 119.223 37.376C118.647 37.916 118.359 38.684 118.359 39.68C118.359 40.592 118.623 41.342 119.151 41.93C119.679 42.518 120.435 42.812 121.419 42.812ZM132.134 44.18C131.198 44.18 130.37 43.958 129.65 43.514C128.942 43.058 128.39 42.464 127.994 41.732C127.598 40.988 127.4 40.184 127.4 39.32C127.4 38.444 127.598 37.64 127.994 36.908C128.402 36.164 128.96 35.57 129.668 35.126C130.388 34.67 131.21 34.442 132.134 34.442C133.07 34.442 133.892 34.67 134.6 35.126C135.32 35.57 135.878 36.164 136.274 36.908C136.682 37.64 136.886 38.444 136.886 39.32C136.886 40.184 136.682 40.988 136.274 41.732C135.878 42.464 135.326 43.058 134.618 43.514C133.91 43.958 133.082 44.18 132.134 44.18ZM129.02 39.338C129.02 39.986 129.158 40.574 129.434 41.102C129.722 41.63 130.1 42.05 130.568 42.362C131.036 42.662 131.558 42.812 132.134 42.812C132.71 42.812 133.232 42.656 133.7 42.344C134.18 42.032 134.558 41.612 134.834 41.084C135.122 40.544 135.266 39.95 135.266 39.302C135.266 38.654 135.122 38.066 134.834 37.538C134.558 37.01 134.18 36.59 133.7 36.278C133.232 35.966 132.71 35.81 132.134 35.81C131.558 35.81 131.036 35.972 130.568 36.296C130.1 36.608 129.722 37.028 129.434 37.556C129.158 38.084 129.02 38.678 129.02 39.338ZM141.091 44V36.008H137.851V34.604H145.915V36.008H142.675V44H141.091ZM147.489 44V34.604H149.073V38.474H150.117L153.069 34.604H154.869L151.359 39.158L155.283 44H153.447L150.117 39.932H149.073V44H147.489ZM156.103 41.282C156.103 40.682 156.271 40.166 156.607 39.734C156.955 39.29 157.429 38.948 158.029 38.708C158.629 38.468 159.325 38.348 160.117 38.348C160.537 38.348 160.981 38.384 161.449 38.456C161.917 38.516 162.331 38.612 162.691 38.744V38.06C162.691 37.34 162.475 36.776 162.043 36.368C161.611 35.948 160.999 35.738 160.207 35.738C159.691 35.738 159.193 35.834 158.713 36.026C158.245 36.206 157.747 36.47 157.219 36.818L156.643 35.702C157.255 35.282 157.867 34.97 158.479 34.766C159.091 34.55 159.727 34.442 160.387 34.442C161.587 34.442 162.535 34.778 163.231 35.45C163.927 36.11 164.275 37.034 164.275 38.222V42.2C164.275 42.572 164.443 42.764 164.779 42.776V44C164.623 44.024 164.485 44.042 164.365 44.054C164.257 44.066 164.167 44.072 164.095 44.072C163.723 44.072 163.441 43.97 163.249 43.766C163.069 43.562 162.967 43.346 162.943 43.118L162.907 42.524C162.499 43.052 161.965 43.46 161.305 43.748C160.645 44.036 159.991 44.18 159.343 44.18C158.719 44.18 158.161 44.054 157.669 43.802C157.177 43.538 156.793 43.19 156.517 42.758C156.241 42.314 156.103 41.822 156.103 41.282ZM162.223 41.948C162.367 41.78 162.481 41.612 162.565 41.444C162.649 41.264 162.691 41.114 162.691 40.994V39.824C161.923 39.524 161.131 39.374 160.314 39.374C159.511 39.374 158.857 39.536 158.353 39.86C157.861 40.172 157.615 40.604 157.615 41.156C157.615 41.456 157.693 41.75 157.849 42.038C158.017 42.314 158.257 42.542 158.569 42.722C158.893 42.902 159.289 42.992 159.757 42.992C160.249 42.992 160.717 42.896 161.161 42.704C161.605 42.5 161.959 42.248 162.223 41.948ZM175.518 44.18C174.582 44.18 173.754 43.958 173.034 43.514C172.314 43.058 171.75 42.458 171.342 41.714C170.934 40.97 170.73 40.16 170.73 39.284C170.73 38.396 170.928 37.586 171.324 36.854C171.72 36.122 172.278 35.54 172.998 35.108C173.718 34.664 174.552 34.442 175.5 34.442C176.424 34.442 177.228 34.652 177.912 35.072C178.608 35.48 179.124 36.032 179.46 36.728L177.912 37.214C177.672 36.77 177.336 36.428 176.904 36.188C176.472 35.936 175.992 35.81 175.464 35.81C174.888 35.81 174.36 35.96 173.88 36.26C173.412 36.56 173.04 36.974 172.764 37.502C172.488 38.018 172.35 38.612 172.35 39.284C172.35 39.944 172.488 40.544 172.764 41.084C173.052 41.612 173.43 42.032 173.898 42.344C174.378 42.656 174.906 42.812 175.482 42.812C175.854 42.812 176.208 42.746 176.544 42.614C176.892 42.482 177.192 42.308 177.444 42.092C177.708 41.864 177.888 41.618 177.984 41.354L179.532 41.822C179.256 42.506 178.752 43.07 178.02 43.514C177.3 43.958 176.466 44.18 175.518 44.18ZM180.589 41.282C180.589 40.682 180.757 40.166 181.093 39.734C181.441 39.29 181.915 38.948 182.515 38.708C183.115 38.468 183.811 38.348 184.603 38.348C185.023 38.348 185.467 38.384 185.935 38.456C186.403 38.516 186.817 38.612 187.177 38.744V38.06C187.177 37.34 186.961 36.776 186.529 36.368C186.097 35.948 185.485 35.738 184.693 35.738C184.177 35.738 183.679 35.834 183.199 36.026C182.731 36.206 182.233 36.47 181.705 36.818L181.129 35.702C181.741 35.282 182.353 34.97 182.965 34.766C183.577 34.55 184.213 34.442 184.873 34.442C186.073 34.442 187.021 34.778 187.717 35.45C188.413 36.11 188.761 37.034 188.761 38.222V42.2C188.761 42.572 188.929 42.764 189.265 42.776V44C189.109 44.024 188.971 44.042 188.851 44.054C188.743 44.066 188.653 44.072 188.581 44.072C188.209 44.072 187.927 43.97 187.735 43.766C187.555 43.562 187.453 43.346 187.429 43.118L187.393 42.524C186.985 43.052 186.451 43.46 185.791 43.748C185.131 44.036 184.477 44.18 183.829 44.18C183.205 44.18 182.647 44.054 182.155 43.802C181.663 43.538 181.279 43.19 181.003 42.758C180.727 42.314 180.589 41.822 180.589 41.282ZM186.709 41.948C186.853 41.78 186.967 41.612 187.051 41.444C187.135 41.264 187.177 41.114 187.177 40.994V39.824C186.409 39.524 185.617 39.374 184.801 39.374C183.997 39.374 183.343 39.536 182.839 39.86C182.347 40.172 182.101 40.604 182.101 41.156C182.101 41.456 182.179 41.75 182.335 42.038C182.503 42.314 182.743 42.542 183.055 42.722C183.379 42.902 183.775 42.992 184.243 42.992C184.735 42.992 185.203 42.896 185.647 42.704C186.091 42.5 186.445 42.248 186.709 41.948ZM191.276 44V34.622H192.86V41.876L198.116 34.604H199.556V44H197.972V36.89L192.788 44H191.276ZM195.434 33.542C194.57 33.542 193.916 33.338 193.472 32.93C193.028 32.51 192.806 31.994 192.806 31.382H193.922C193.922 31.718 194.036 32 194.264 32.228C194.504 32.444 194.894 32.552 195.434 32.552C195.962 32.552 196.334 32.45 196.55 32.246C196.766 32.03 196.898 31.742 196.946 31.382H198.062C198.062 31.994 197.84 32.51 197.396 32.93C196.952 33.338 196.298 33.542 195.434 33.542ZM204.373 44V36.008H201.133V34.604H209.197V36.008H205.957V44H204.373ZM214.892 44.18C213.956 44.18 213.128 43.958 212.408 43.514C211.7 43.058 211.148 42.464 210.752 41.732C210.356 40.988 210.158 40.184 210.158 39.32C210.158 38.444 210.356 37.64 210.752 36.908C211.16 36.164 211.718 35.57 212.426 35.126C213.146 34.67 213.968 34.442 214.892 34.442C215.828 34.442 216.65 34.67 217.358 35.126C218.078 35.57 218.636 36.164 219.032 36.908C219.44 37.64 219.644 38.444 219.644 39.32C219.644 40.184 219.44 40.988 219.032 41.732C218.636 42.464 218.084 43.058 217.376 43.514C216.668 43.958 215.84 44.18 214.892 44.18ZM211.778 39.338C211.778 39.986 211.916 40.574 212.192 41.102C212.48 41.63 212.858 42.05 213.326 42.362C213.794 42.662 214.316 42.812 214.892 42.812C215.468 42.812 215.99 42.656 216.458 42.344C216.938 42.032 217.316 41.612 217.592 41.084C217.88 40.544 218.024 39.95 218.024 39.302C218.024 38.654 217.88 38.066 217.592 37.538C217.316 37.01 216.938 36.59 216.458 36.278C215.99 35.966 215.468 35.81 214.892 35.81C214.316 35.81 213.794 35.972 213.326 36.296C212.858 36.608 212.48 37.028 212.192 37.556C211.916 38.084 211.778 38.678 211.778 39.338ZM221.545 44V34.604H226.405C226.969 34.604 227.437 34.718 227.809 34.946C228.181 35.162 228.457 35.444 228.637 35.792C228.829 36.14 228.925 36.512 228.925 36.908C228.925 37.412 228.805 37.868 228.565 38.276C228.325 38.672 227.977 38.972 227.521 39.176C228.061 39.332 228.499 39.614 228.835 40.022C229.171 40.418 229.339 40.91 229.339 41.498C229.339 42.29 229.057 42.908 228.493 43.352C227.941 43.784 227.215 44 226.315 44H221.545ZM223.057 38.744H225.991C226.411 38.744 226.753 38.588 227.017 38.276C227.293 37.952 227.431 37.586 227.431 37.178C227.431 36.782 227.299 36.44 227.035 36.152C226.783 35.864 226.453 35.72 226.045 35.72H223.057V38.744ZM223.057 42.884H226.279C226.711 42.884 227.071 42.728 227.359 42.416C227.659 42.104 227.809 41.744 227.809 41.336C227.809 40.916 227.665 40.556 227.377 40.256C227.101 39.944 226.753 39.788 226.333 39.788H223.057V42.884Z" fill="white"/>
<path d="M70.436 7.238H73.154L74.486 11.324L75.818 7.238H78.554L76.376 13.178L77.672 16.58L80.876 7.22H84.098L79.112 20H76.556L74.486 14.996L72.434 20H69.86L64.892 7.22H68.096L71.318 16.58L72.578 13.178L70.436 7.238ZM89.3792 20.18C88.5752 20.18 87.8612 20.054 87.2372 19.802C86.6132 19.538 86.0792 19.184 85.6352 18.74C85.2032 18.296 84.8732 17.786 84.6452 17.21C84.4172 16.622 84.3032 16.01 84.3032 15.374C84.3032 14.462 84.5012 13.634 84.8972 12.89C85.3052 12.134 85.8872 11.528 86.6432 11.072C87.3992 10.604 88.3112 10.37 89.3792 10.37C90.4472 10.37 91.3532 10.598 92.0972 11.054C92.8532 11.51 93.4292 12.11 93.8252 12.854C94.2212 13.586 94.4192 14.384 94.4192 15.248C94.4192 15.416 94.4072 15.584 94.3832 15.752C94.3712 15.908 94.3592 16.046 94.3472 16.166H87.3632C87.3992 16.586 87.5132 16.94 87.7052 17.228C87.9092 17.516 88.1672 17.738 88.4792 17.894C88.7912 18.038 89.1212 18.11 89.4692 18.11C89.9012 18.11 90.3032 18.008 90.6752 17.804C91.0592 17.6 91.3232 17.324 91.4672 16.976L93.9152 17.66C93.6752 18.152 93.3332 18.59 92.8892 18.974C92.4572 19.346 91.9412 19.64 91.3412 19.856C90.7532 20.072 90.0992 20.18 89.3792 20.18ZM87.2912 14.402H91.3952C91.3472 14.006 91.2332 13.664 91.0532 13.376C90.8732 13.076 90.6332 12.848 90.3332 12.692C90.0332 12.524 89.7032 12.44 89.3432 12.44C88.9712 12.44 88.6352 12.524 88.3352 12.692C88.0472 12.848 87.8132 13.076 87.6332 13.376C87.4532 13.664 87.3392 14.006 87.2912 14.402ZM102.564 20.18C101.844 20.18 101.214 20.03 100.674 19.73C100.134 19.418 99.7085 18.986 99.3965 18.434V20H96.8945V6.86H99.7745V12.098C100.086 11.546 100.5 11.12 101.016 10.82C101.544 10.52 102.162 10.37 102.87 10.37C103.47 10.37 104.016 10.502 104.508 10.766C105.012 11.018 105.444 11.372 105.804 11.828C106.176 12.272 106.464 12.794 106.668 13.394C106.872 13.982 106.974 14.624 106.974 15.32C106.974 16.004 106.86 16.64 106.632 17.228C106.416 17.816 106.11 18.332 105.714 18.776C105.318 19.22 104.85 19.568 104.31 19.82C103.782 20.06 103.2 20.18 102.564 20.18ZM101.754 17.75C102.078 17.75 102.378 17.69 102.654 17.57C102.942 17.438 103.188 17.264 103.392 17.048C103.596 16.832 103.752 16.58 103.86 16.292C103.968 15.992 104.022 15.668 104.022 15.32C104.022 14.876 103.932 14.462 103.752 14.078C103.572 13.694 103.32 13.388 102.996 13.16C102.684 12.932 102.318 12.818 101.898 12.818C101.598 12.818 101.31 12.89 101.034 13.034C100.758 13.178 100.512 13.376 100.296 13.628C100.08 13.868 99.9065 14.144 99.7745 14.456V16.436C99.8705 16.64 99.9905 16.826 100.134 16.994C100.278 17.15 100.434 17.282 100.602 17.39C100.782 17.498 100.968 17.588 101.16 17.66C101.364 17.72 101.562 17.75 101.754 17.75ZM115.554 20.18C114.846 20.18 114.228 20.03 113.7 19.73C113.172 19.418 112.758 18.998 112.458 18.47V23.834H109.578V10.55H112.08V12.08C112.428 11.54 112.866 11.12 113.394 10.82C113.922 10.52 114.54 10.37 115.248 10.37C115.884 10.37 116.466 10.496 116.994 10.748C117.534 11 118.002 11.348 118.398 11.792C118.794 12.236 119.1 12.752 119.316 13.34C119.532 13.928 119.64 14.564 119.64 15.248C119.64 16.184 119.466 17.024 119.118 17.768C118.77 18.512 118.284 19.1 117.66 19.532C117.048 19.964 116.346 20.18 115.554 20.18ZM114.582 17.75C114.894 17.75 115.176 17.684 115.428 17.552C115.692 17.408 115.92 17.222 116.112 16.994C116.304 16.766 116.448 16.502 116.544 16.202C116.652 15.89 116.706 15.566 116.706 15.23C116.706 14.882 116.646 14.564 116.526 14.276C116.418 13.988 116.262 13.736 116.058 13.52C115.854 13.292 115.614 13.118 115.338 12.998C115.062 12.878 114.762 12.818 114.438 12.818C114.246 12.818 114.048 12.848 113.844 12.908C113.652 12.968 113.466 13.058 113.286 13.178C113.118 13.286 112.962 13.418 112.818 13.574C112.674 13.73 112.554 13.91 112.458 14.114V16.058C112.59 16.382 112.764 16.67 112.98 16.922C113.196 17.174 113.442 17.378 113.718 17.534C113.994 17.678 114.282 17.75 114.582 17.75ZM128.256 13.016C127.56 13.016 126.93 13.13 126.366 13.358C125.802 13.574 125.394 13.898 125.142 14.33V20H122.262V10.55H124.908V12.458C125.232 11.822 125.652 11.324 126.168 10.964C126.684 10.604 127.224 10.418 127.788 10.406C127.92 10.406 128.016 10.406 128.076 10.406C128.148 10.406 128.208 10.412 128.256 10.424V13.016ZM135.069 20.18C134.265 20.18 133.545 20.048 132.909 19.784C132.285 19.52 131.757 19.16 131.325 18.704C130.893 18.248 130.563 17.726 130.335 17.138C130.119 16.55 130.011 15.932 130.011 15.284C130.011 14.624 130.119 14 130.335 13.412C130.563 12.824 130.893 12.302 131.325 11.846C131.757 11.39 132.285 11.03 132.909 10.766C133.545 10.502 134.265 10.37 135.069 10.37C135.873 10.37 136.587 10.502 137.211 10.766C137.835 11.03 138.363 11.39 138.795 11.846C139.227 12.302 139.557 12.824 139.785 13.412C140.013 14 140.127 14.624 140.127 15.284C140.127 15.932 140.013 16.55 139.785 17.138C139.557 17.726 139.227 18.248 138.795 18.704C138.363 19.16 137.835 19.52 137.211 19.784C136.587 20.048 135.873 20.18 135.069 20.18ZM132.963 15.284C132.963 15.776 133.053 16.208 133.233 16.58C133.425 16.952 133.677 17.24 133.989 17.444C134.301 17.648 134.661 17.75 135.069 17.75C135.465 17.75 135.819 17.648 136.131 17.444C136.455 17.228 136.707 16.934 136.887 16.562C137.067 16.19 137.157 15.764 137.157 15.284C137.157 14.792 137.067 14.36 136.887 13.988C136.707 13.616 136.455 13.328 136.131 13.124C135.819 12.92 135.465 12.818 135.069 12.818C134.661 12.818 134.301 12.92 133.989 13.124C133.677 13.328 133.425 13.616 133.233 13.988C133.053 14.36 132.963 14.792 132.963 15.284ZM143.284 20V13.502H142.078V11.324H143.284V10.55C143.284 9.758 143.416 9.074 143.68 8.498C143.956 7.922 144.34 7.478 144.832 7.166C145.336 6.842 145.918 6.68 146.578 6.68C146.986 6.68 147.394 6.728 147.802 6.824C148.21 6.92 148.624 7.058 149.044 7.238L148.522 9.398C148.342 9.314 148.132 9.248 147.892 9.2C147.652 9.14 147.43 9.11 147.226 9.11C146.878 9.11 146.614 9.224 146.434 9.452C146.254 9.668 146.164 9.998 146.164 10.442V11.324H148.36V13.502H146.164V20H143.284ZM150.135 20V17.066H152.493V20H150.135ZM161.983 20L159.517 16.22L158.509 17.246V20H155.629V6.86H158.509V14.456L161.713 10.55H164.755L161.353 14.618L165.043 20H161.983ZM166.489 18.272L171.295 12.548H166.741V10.55H174.319V12.278L169.567 18.002H174.445V20H166.489V18.272Z" fill="white"/>
</svg>
