<?xml version="1.0" encoding="utf-8"?>
<!-- Generator: Adobe Illustrator 22.0.0, SVG Export Plug-In . SVG Version: 6.00 Build 0)  -->
<svg version="1.1" id="Слой_1" xmlns="http://www.w3.org/2000/svg" xmlns:xlink="http://www.w3.org/1999/xlink" x="0px" y="0px"
	 viewBox="0 0 100 100" style="enable-background:new 0 0 100 100;" xml:space="preserve">
<style type="text/css">
	.st0{fill:url(#SVGID_1_);}
	.st1{fill:url(#SVGID_2_);}
	.st2{fill:#FFFFFF;}
	.st3{fill:url(#SVGID_3_);}
	.st4{fill:url(#SVGID_4_);}
	.st5{fill:#E9F4FC;}
	.st6{fill:#A9C0D0;}
</style>
<g>
	<g>
		<linearGradient id="SVGID_1_" gradientUnits="userSpaceOnUse" x1="30.8813" y1="50.5" x2="68.7016" y2="50.5">
			<stop  offset="0" style="stop-color:#DFF5FB"/>
			<stop  offset="0.2502" style="stop-color:#D3EEF6"/>
			<stop  offset="1" style="stop-color:#AED8E6"/>
		</linearGradient>
		<path class="st0" d="M62,86.1H37.6c-3.7,0-6.8-3-6.8-6.8V21.6c0-3.7,3-6.8,6.8-6.8H62c3.7,0,6.8,3,6.8,6.8v57.8
			C68.7,83.1,65.7,86.1,62,86.1z"/>
		<linearGradient id="SVGID_2_" gradientUnits="userSpaceOnUse" x1="41.9657" y1="58.256" x2="81.0573" y2="17.2575">
			<stop  offset="0" style="stop-color:#1570A3"/>
			<stop  offset="0.9525" style="stop-color:#B1D2E1"/>
			<stop  offset="1" style="stop-color:#B9D7E4"/>
		</linearGradient>
		<rect x="30.9" y="23.4" class="st1" width="37.8" height="53.4"/>
		<path class="st2" d="M53.8,20.5h-8c-0.3,0-0.5-0.2-0.5-0.5v-0.1c0-0.3,0.2-0.5,0.5-0.5h8c0.3,0,0.5,0.2,0.5,0.5V20
			C54.3,20.3,54.1,20.5,53.8,20.5z"/>
		<circle class="st2" cx="49.8" cy="81.4" r="3.4"/>
		<linearGradient id="SVGID_3_" gradientUnits="userSpaceOnUse" x1="58.7124" y1="42.9624" x2="125.772" y2="17.2191">
			<stop  offset="0" style="stop-color:#1570A3"/>
			<stop  offset="0.9525" style="stop-color:#B1D2E1"/>
			<stop  offset="1" style="stop-color:#B9D7E4"/>
		</linearGradient>
		<polygon class="st3" points="68.7,23.4 30.9,23.4 68.7,69.4 		"/>
	</g>
	<linearGradient id="SVGID_4_" gradientUnits="userSpaceOnUse" x1="38.1116" y1="38.5688" x2="75.2963" y2="38.5688">
		<stop  offset="0" style="stop-color:#F28B6C"/>
		<stop  offset="1" style="stop-color:#C7586B"/>
	</linearGradient>
	<path class="st4" d="M73.6,28.8H39.8c-0.9,0-1.7,0.8-1.7,1.7v14.4c0,0.9,0.8,1.7,1.7,1.7h1.6l1.7,1.7l1.7-1.7h28.8
		c0.9,0,1.7-0.8,1.7-1.7V30.5C75.3,29.6,74.5,28.8,73.6,28.8z"/>
	<path class="st5" d="M60.2,51.3H26.4c-0.9,0-1.7,0.8-1.7,1.7v14.4c0,0.9,0.8,1.7,1.7,1.7h29.4l1.7,1.7l1.7-1.7h1
		c0.9,0,1.7-0.8,1.7-1.7V53C61.9,52,61.1,51.3,60.2,51.3z"/>
	<g>
		<path class="st5" d="M69.9,33.2H43.7c-0.2,0-0.4-0.2-0.4-0.4v-0.1c0-0.2,0.2-0.4,0.4-0.4h26.2c0.2,0,0.4,0.2,0.4,0.4v0.1
			C70.3,33,70.1,33.2,69.9,33.2z"/>
		<path class="st5" d="M69.9,36.5H43.7c-0.2,0-0.4-0.2-0.4-0.4V36c0-0.2,0.2-0.4,0.4-0.4h26.2c0.2,0,0.4,0.2,0.4,0.4v0.1
			C70.3,36.3,70.1,36.5,69.9,36.5z"/>
		<path class="st5" d="M69.9,39.7H43.7c-0.2,0-0.4-0.2-0.4-0.4v-0.1c0-0.2,0.2-0.4,0.4-0.4h26.2c0.2,0,0.4,0.2,0.4,0.4v0.1
			C70.3,39.5,70.1,39.7,69.9,39.7z"/>
		<path class="st5" d="M69.9,43H43.7c-0.2,0-0.4-0.2-0.4-0.4v-0.1c0-0.2,0.2-0.4,0.4-0.4h26.2c0.2,0,0.4,0.2,0.4,0.4v0.1
			C70.3,42.8,70.1,43,69.9,43z"/>
	</g>
	<g>
		<path class="st6" d="M56.6,55.9H30.4c-0.2,0-0.4-0.2-0.4-0.4v-0.1c0-0.2,0.2-0.4,0.4-0.4h26.2c0.2,0,0.4,0.2,0.4,0.4v0.1
			C57,55.8,56.9,55.9,56.6,55.9z"/>
		<path class="st6" d="M56.6,59.2H30.4c-0.2,0-0.4-0.2-0.4-0.4v-0.1c0-0.2,0.2-0.4,0.4-0.4h26.2c0.2,0,0.4,0.2,0.4,0.4v0.1
			C57,59,56.9,59.2,56.6,59.2z"/>
		<path class="st6" d="M56.6,62.4H30.4c-0.2,0-0.4-0.2-0.4-0.4V62c0-0.2,0.2-0.4,0.4-0.4h26.2c0.2,0,0.4,0.2,0.4,0.4V62
			C57,62.3,56.9,62.4,56.6,62.4z"/>
		<path class="st6" d="M56.6,65.7H30.4c-0.2,0-0.4-0.2-0.4-0.4v-0.1c0-0.2,0.2-0.4,0.4-0.4h26.2c0.2,0,0.4,0.2,0.4,0.4v0.1
			C57,65.5,56.9,65.7,56.6,65.7z"/>
	</g>
</g>
</svg>
