<svg width="18" height="18" viewBox="0 0 18 18" fill="none" xmlns="http://www.w3.org/2000/svg">
<circle cx="9" cy="9" r="9" fill="#0F54B9" fill-opacity="0.8"/>
<path d="M10.0903 11.1753H8.47168C8.47591 10.7944 8.50553 10.4665 8.56055 10.1914C8.61979 9.91211 8.71924 9.66032 8.85889 9.43604C9.00277 9.21175 9.1932 8.98958 9.43018 8.76953C9.62907 8.5918 9.80257 8.42253 9.95068 8.26172C10.0988 8.10091 10.2152 7.93587 10.2998 7.7666C10.3844 7.5931 10.4268 7.40055 10.4268 7.18896C10.4268 6.94352 10.3887 6.7404 10.3125 6.57959C10.2406 6.41455 10.1305 6.28971 9.98242 6.20508C9.83854 6.12044 9.65658 6.07812 9.43652 6.07812C9.25456 6.07812 9.08529 6.11833 8.92871 6.19873C8.77214 6.2749 8.64307 6.39339 8.5415 6.5542C8.44417 6.71501 8.39339 6.9266 8.38916 7.18896H6.54834C6.56104 6.60921 6.69434 6.13102 6.94824 5.75439C7.20638 5.37354 7.55127 5.09212 7.98291 4.91016C8.41455 4.72396 8.89909 4.63086 9.43652 4.63086C10.029 4.63086 10.5368 4.72819 10.96 4.92285C11.3831 5.11328 11.7069 5.39469 11.9312 5.76709C12.1554 6.13525 12.2676 6.58382 12.2676 7.11279C12.2676 7.48096 12.1956 7.80892 12.0518 8.09668C11.9079 8.38021 11.7196 8.64469 11.4868 8.89014C11.2541 9.13558 10.998 9.38949 10.7188 9.65186C10.4775 9.86768 10.3125 10.0941 10.2236 10.3311C10.139 10.568 10.0946 10.8494 10.0903 11.1753ZM8.28125 13.1367C8.28125 12.8659 8.37435 12.6416 8.56055 12.4639C8.74674 12.2819 8.99642 12.1909 9.30957 12.1909C9.61849 12.1909 9.86605 12.2819 10.0522 12.4639C10.2427 12.6416 10.3379 12.8659 10.3379 13.1367C10.3379 13.3991 10.2427 13.6213 10.0522 13.8032C9.86605 13.9852 9.61849 14.0762 9.30957 14.0762C8.99642 14.0762 8.74674 13.9852 8.56055 13.8032C8.37435 13.6213 8.28125 13.3991 8.28125 13.1367Z" fill="white"/>
</svg>
