<svg width="25" height="25" viewBox="0 0 25 25" fill="none" xmlns="http://www.w3.org/2000/svg">
<g clip-path="url(#clip0_481_61)">
<path d="M19.0069 16.5382C18.1901 15.7318 17.1705 15.7318 16.3589 16.5382C15.7398 17.1521 15.1208 17.7659 14.5121 18.3902C14.3456 18.5619 14.2052 18.5983 14.0023 18.4838C13.6017 18.2653 13.1751 18.0885 12.7902 17.8492C10.9954 16.7203 9.49193 15.2688 8.16015 13.6353C7.49946 12.8238 6.91161 11.955 6.50063 10.977C6.41739 10.7793 6.433 10.6492 6.59427 10.488C7.21334 9.8897 7.8168 9.27583 8.42546 8.66197C9.27343 7.80879 9.27343 6.80996 8.42026 5.95159C7.93645 5.46257 7.45264 4.98397 6.96883 4.49495C6.46941 3.99554 5.9752 3.49092 5.47058 2.9967C4.65382 2.20076 3.63418 2.20076 2.82263 3.0019C2.19835 3.61577 1.60009 4.24524 0.965418 4.84871C0.377562 5.40535 0.081033 6.08685 0.0186058 6.88279C-0.0802372 8.17816 0.237101 9.40069 0.684496 10.592C1.60009 13.0579 2.9943 15.248 4.68504 17.2561C6.96883 19.9717 9.69482 22.1202 12.8838 23.6705C14.3196 24.3676 15.8075 24.9034 17.4254 24.9919C18.5387 25.0543 19.5063 24.7734 20.2814 23.9046C20.8121 23.3115 21.4103 22.7705 21.9722 22.2035C22.8045 21.3607 22.8097 20.341 21.9826 19.5087C20.9941 18.5151 20.0005 17.5266 19.0069 16.5382Z" fill="white"/>
<path d="M18.0133 12.3918L19.9329 12.064C19.6312 10.3004 18.7988 8.70335 17.5347 7.434C16.1977 6.09702 14.507 5.25425 12.6445 4.99414L12.374 6.92418C13.8151 7.12707 15.126 7.77735 16.1613 8.8126C17.1393 9.79063 17.7792 11.0288 18.0133 12.3918Z" fill="white"/>
<path d="M21.015 4.04736C18.7988 1.8312 15.9948 0.431788 12.8994 0L12.6289 1.93004C15.3029 2.3046 17.7271 3.51673 19.6416 5.42596C21.4571 7.24155 22.6485 9.53575 23.0803 12.0588L24.9999 11.7311C24.4953 8.80743 23.1167 6.15428 21.015 4.04736Z" fill="white"/>
</g>
<defs>
<clipPath id="clip0_481_61">
<rect width="25" height="25" fill="white"/>
</clipPath>
</defs>
</svg>
